# AST/ASF file generated using VICON BodyLanguage
# -----------------------------------------------
:version 1.10
:name VICON
:units
  mass 1.0
  length 0.45
  angle deg
:documentation
   .ast/.asf automatically generated from VICON data using
   VICON BodyBuilder and BodyLanguage model FoxedUp or BRILLIANT.MOD
:root
   order TX TY TZ RX RY RZ
   axis XYZ
   position 0 0 0  
   orientation 0 0 0 
:bonedata
  begin
     id 1 
     name lhipjoint
     direction 0.577973 -0.728611 0.367523 
     length 2.48544 
     axis 0 0 0  XYZ
  end
  begin
     id 2 
     name lfemur
     direction 0.34202 -0.939693 0  
     length 7.1921  
     axis 0 0 20  XYZ
    dof rx ry rz
    limits (-160.0 20.0)
           (-70.0 70.0)
           (-60.0 70.0)
  end
  begin
     id 3 
     name ltibia
     direction 0.34202 -0.939693 0   
     length 7.71059   
     axis 0 0 20   XYZ
    dof rx
    limits (-10.0 170.0)
  end
  begin
     id 4 
     name lfoot
     direction 0.089538 -0.246004 0.965124   
     length 2.19909   
     axis -90 7.62852e-016 20   XYZ
    dof rx rz
    limits (-45.0 90.0)
           (-70.0 20.0)
  end
  begin
     id 5 
     name ltoes
     direction 1.53544e-011 -4.21829e-011 1   
     length 1.10116   
     axis -90 7.62852e-016 20   XYZ
    dof rx
    limits (-90.0 20.0)
  end
  begin
     id 6 
     name rhipjoint
     direction -0.554414 -0.743062 0.374812   
     length 2.4371  
     axis 0 0 0  XYZ 
  end
  begin
     id 7 
     name rfemur
     direction -0.34202 -0.939693 0   
     length 7.47254   
     axis 0 0 -20   XYZ
    dof rx ry rz
    limits (-160.0 20.0)
           (-70.0 70.0)
           (-70.0 60.0)
  end
  begin
     id 8 
     name rtibia
     direction -0.34202 -0.939693 0   
     length 7.65855   
     axis 0 0 -20   XYZ
    dof rx
    limits (-10.0 170.0)
 end
 begin
     id 9 
     name rfoot
     direction -0.133779 -0.367555 0.92033   
     length 2.43006  
     axis -90 -7.62852e-016 -20   XYZ
    dof rx rz
    limits (-45.0 90.0)
           (-20.0 70.0)
  end
  begin
     id 10 
     name rtoes
     direction -1.53563e-011 -4.21889e-011 1   
     length 1.19625   
     axis -90 -7.62852e-016 -20   XYZ
    dof rx
    limits (-90.0 20.0)
  end
  begin
     id 11 
     name lowerback
     direction 0.0249066 0.998043 -0.0573585   
     length 2.08485   
     axis 0 0 0   XYZ
    dof rx ry rz
    limits (-20.0 45.0)
           (-30.0 30.0)
           (-30.0 30.0)
  end
  begin
     id 12 
     name upperback
     direction 0.0237884 0.999673 0.00943178   
     length 2.08515   
     axis 0 0 0   XYZ
    dof rx ry rz
    limits (-20.0 45.0)
           (-30.0 30.0)
           (-30.0 30.0)
  end
  begin
     id 13 
     name thorax
     direction 0.0106671 0.999301 0.0358174   
     length 2.09037   
     axis 0 0 0   XYZ
    dof rx ry rz
    limits (-20.0 45.0)
           (-30.0 30.0)
           (-30.0 30.0)
  end
  begin
     id 14 
     name lowerneck
     direction -0.0580016 0.987052 0.149546   
     length 1.84454   
     axis 0 0 0   XYZ
    dof rx ry rz
    limits (-20.0 45.0)
           (-30.0 30.0)
           (-30.0 30.0)
  end
  begin
     id 15 
     name upperneck
     direction 0.079456 0.981963 -0.171567   
     length 1.88141   
     axis 0 0 0   XYZ
    dof rx ry rz
    limits (-20.0 45.0)
           (-30.0 30.0)
           (-30.0 30.0)
  end
  begin
     id 16
     name head
     direction 0.0262167 0.9967 -0.0768276  
     length 1.89541  
     axis 0 0 0   XYZ
    dof rx ry rz
    limits (-20.0 45.0)
           (-30.0 30.0)
           (-30.0 30.0)
  end
  begin
     id 17 
     name lclavicle
     direction 0.946135 0.322134 -0.0325326  
     length 3.949  
     axis 0 0 0   XYZ
    dof ry rz
    limits (-20.0 10.0)
           (0.0 20.0)
  end
  begin
     id 18 
     name lhumerus
     direction 1 -4.48964e-011 1.94005e-028   
     length 5.10995   
     axis 180 -30 -90   XYZ
    dof rx ry rz
    limits (-60.0 90.0)
           (-90.0 90.0)
           (-90.0 90.0)
  end
  begin
     id 19
     name lradius
     direction 1 -4.48976e-011 2.87852e-027   
     length 3.21207   
     axis 180 -30 -90   XYZ
    dof rx
    limits (-10.0 170.0)
  end
  begin
     id 20
     name lwrist
     direction 1 -4.48963e-011 1.9975e-027   
     length 1.60604   
     axis 2.96054e-016 90 90   XYZ
    dof ry
    limits (-180.0 0.0)
 end
  begin
     id 21 
     name lhand
     direction 1 -4.48919e-011 4.00227e-027   
     length 0.63349   
     axis -2.5488e-015 90 90   XYZ
    dof rx rz
    limits (-90.0 90.0)
           (-45.0 45.0)
  end
  begin
     id 22 
     name lfingers
     direction 1 -4.49037e-011 7.9652e-027   
     length 0.510736   
     axis -5.0975e-015 90 90   XYZ
    dof rx
    limits (0.0 90.0)
  end
  begin
     id 23
     name lthumb
     direction 0.707107 -6.34922e-011 0.707107   
     length 0.733318   
     axis -90 45 -4.48553e-014   XYZ
    dof rx rz
    limits (-45.0 45.0)
           (-45.0 45.0)
  end
  begin
     id 24 
     name rclavicle
     direction -0.940085 0.328911 -0.0897654   
     length 3.93848  
     axis 0 0 0   XYZ 
    dof ry rz
    limits (-10.0 20.0)
           (-20.0 0.0)
  end
  begin
     id 25 
     name rhumerus
     direction -1 -4.48958e-011 3.02044e-027  
     length 5.25109   
     axis 180 30 90   XYZ
    dof rx ry rz
    limits (-90.0 60.0)
           (-90.0 90.0)
           (-90.0 90.0)
  end
  begin
     id 26 
     name rradius
     direction -1 -4.4897e-011 9.78352e-028   
     length 3.28364   
     axis 180 30 90   XYZ
    dof rx
    limits (-10.0 170.0)
  end
  begin
     id 27 
     name rwrist
     direction -1 -4.48943e-011 1.99918e-027   
     length 1.64182   
     axis 2.96054e-016 -90 -90   XYZ
    dof ry
    limits (-180.0 0.0)
  end
  begin
     id 28
     name rhand
     direction -1 -4.49024e-011 3.98478e-027   
     length 0.599745   
     axis -2.5488e-015 -90 -90   XYZ
    dof rx rz
    limits (-90.0 90.0)
           (-45.0 45.0)
  end
  begin
     id 29
     name rfingers
     direction -1 -4.48914e-011 8.00621e-027   
     length 0.48353   
     axis -5.0975e-015 -90 -90   XYZ
    dof rx
    limits (0.0 90.0)
  end
  begin
     id 30
     name rthumb
     direction -0.707107 -6.34992e-011 0.707107   
     length 0.694255   
     axis -90 -45 4.48553e-014   XYZ
    dof rx rz
    limits (-45.0 45.0)
           (-45.0 45.0)
  end
:hierarchy
  begin
    root lhipjoint rhipjoint lowerback
    lhipjoint lfemur
    lfemur ltibia
    ltibia lfoot
    lfoot ltoes
    rhipjoint rfemur
    rfemur rtibia
    rtibia rfoot
    rfoot rtoes
    lowerback upperback
    upperback thorax
    thorax lowerneck lclavicle rclavicle
    lowerneck upperneck
    upperneck head
    lclavicle lhumerus
    lhumerus lradius
    lradius lwrist
    lwrist lhand lthumb
    lhand lfingers
    rclavicle rhumerus
    rhumerus rradius
    rradius rwrist
    rwrist rhand rthumb
    rhand rfingers
  end

#!OML:ASF E:\CV Data\Top Level 1\Subject 1\Session 1\player.ASF
:FULLY-SPECIFIED
:DEGREES
181
root 10.8824 16.9726 -5.44863 30.1469 -82.9968 -26.7941
lowerback 9.0582 1.22561 5.07321
upperback 1.56805 2.12917 2.57591
thorax -3.35937 0.975546 -0.423489
lowerneck -15.4345 10.9217 -2.68067
upperneck 23.504 15.4004 1.59631
head 9.62381 7.00332 2.8724
rclavicle -4.96962e-015 -2.38542e-014
rhumerus -29.9556 40.9615 -97.8501
rradius 94.7208
rwrist -9.9963
rhand -37.4039 17.5346
rfingers 7.12502
rthumb -10.4643 -12.1849
lclavicle -4.96962e-015 -2.38542e-014
lhumerus -30.5024 -36.6343 105.794
lradius 98.7551
lwrist 36.858
lhand -27.8449 37.4273
lfingers 7.12502
lthumb -1.23611 67.4034
rfemur -30.2752 2.32774 26.9385
rtibia 44.8789
rfoot -16.2689 -9.27468
rtoes 13.0537
lfemur -19.5955 8.37039 -11.677
ltibia 61.1761
lfoot -16.6438 0.329125
ltoes -6.97946
182
root 10.9414 16.9806 -5.44715 28.6229 -82.8317 -25.1323
lowerback 8.9457 1.14673 5.00327
upperback 1.51786 2.01441 2.56293
thorax -3.35604 0.920023 -0.382898
lowerneck -15.4645 10.9393 -2.63737
upperneck 23.5093 15.4265 1.55521
head 9.63816 7.01342 2.85853
rclavicle -4.2043e-014 3.97569e-015
rhumerus -30.0574 41.0251 -97.9301
rradius 94.974
rwrist -9.84369
rhand -37.3585 17.6753
rfingers 7.12502
rthumb -10.4205 -12.0465
lclavicle -4.2043e-014 3.97569e-015
lhumerus -30.7736 -36.6582 105.86
lradius 99.1073
lwrist 36.4347
lhand -27.824 37.0903
lfingers 7.12502
lthumb -1.2159 67.0666
rfemur -30.5752 2.13925 26.7536
rtibia 44.7351
rfoot -15.993 -9.23492
rtoes 13.061
lfemur -18.7681 8.38801 -11.7851
ltibia 61.4303
lfoot -16.2757 -0.0868903
ltoes -7.38405
183
root 11.0013 16.9881 -5.44552 27.0408 -82.6607 -23.4047
lowerback 8.8254 1.06496 4.91234
upperback 1.46447 1.89367 2.54494
thorax -3.35219 0.861857 -0.335209
lowerneck -15.4846 10.958 -2.61045
upperneck 23.4917 15.4549 1.5235
head 9.64026 7.02568 2.84834
rclavicle -1.72943e-014 -3.97569e-015
rhumerus -30.1899 41.0913 -98.0406
rradius 95.237
rwrist -9.73841
rhand -37.3258 17.8123
rfingers 7.12502
rthumb -10.389 -11.9111
lclavicle -1.72943e-014 -3.97569e-015
lhumerus -31.0654 -36.7013 105.92
lradius 99.4704
lwrist 35.998
lhand -27.7967 36.6899
lfingers 7.12502
lthumb -1.18957 66.6663
rfemur -30.8917 1.95415 26.5467
rtibia 44.6045
rfoot -15.7198 -9.20432
rtoes 13.0751
lfemur -17.9155 8.38878 -11.9149
ltibia 61.5747
lfoot -15.9006 -0.436226
ltoes -7.74613
184
root 11.0623 16.995 -5.44384 25.3943 -82.4714 -21.6039
lowerback 8.69895 0.97895 4.80483
upperback 1.40666 1.76586 2.52324
thorax -3.34983 0.800407 -0.28149
lowerneck -15.5029 10.9773 -2.58127
upperneck 23.4596 15.4825 1.49317
head 9.63697 7.03879 2.83736
rclavicle -1.5704e-014 -1.43125e-014
rhumerus -30.3517 41.1578 -98.1756
rradius 95.5076
rwrist -9.67469
rhand -37.3226 17.9584
rfingers 7.12502
rthumb -10.3859 -11.7651
lclavicle -1.5704e-014 -1.43125e-014
lhumerus -31.3762 -36.755 105.997
lradius 99.8285
lwrist 35.5332
lhand -27.8323 36.2466
lfingers 7.12502
lthumb -1.22399 66.2228
rfemur -31.2266 1.76572 26.3211
rtibia 44.4868
rfoot -15.4482 -9.1883
rtoes 13.0918
lfemur -17.0458 8.37171 -12.0625
ltibia 61.6055
lfoot -15.4994 -0.708042
ltoes -8.15405
185
root 11.125 17.0014 -5.44248 23.7146 -82.2628 -19.7572
lowerback 8.56898 0.891353 4.6815
upperback 1.34235 1.63486 2.49478
thorax -3.35217 0.737527 -0.225827
lowerneck -15.5052 10.9938 -2.56646
upperneck 23.4064 15.5058 1.47245
head 9.62122 7.05124 2.82876
rclavicle -4.96962e-016 -3.97569e-015
rhumerus -30.5364 41.2126 -98.3383
rradius 95.7784
rwrist -9.63391
rhand -37.3626 18.1233
rfingers 7.12502
rthumb -10.4244 -11.5983
lclavicle -4.96962e-016 -3.97569e-015
lhumerus -31.708 -36.8482 106.075
lradius 100.189
lwrist 35.0567
lhand -27.8673 35.7596
lfingers 7.12502
lthumb -1.25776 65.7356
rfemur -31.585 1.57911 26.0795
rtibia 44.3817
rfoot -15.1778 -9.19121
rtoes 13.1223
lfemur -16.1668 8.33301 -12.2266
ltibia 61.5167
lfoot -15.0531 -0.913098
ltoes -8.55081
186
root 11.1888 17.0075 -5.44088 22.0165 -82.0368 -17.885
lowerback 8.43351 0.800998 4.54557
upperback 1.27649 1.49903 2.46404
thorax -3.353 0.672478 -0.165146
lowerneck -15.5057 11.0085 -2.56934
upperneck 23.3452 15.5285 1.46087
head 9.59996 7.06345 2.82493
rclavicle -2.82274e-014 3.18055e-015
rhumerus -30.7388 41.2705 -98.514
rradius 96.0512
rwrist -9.60753
rhand -37.4571 18.2946
rfingers 7.12502
rthumb -10.5156 -11.4223
lclavicle -2.82274e-014 3.18055e-015
lhumerus -32.0351 -36.9378 106.177
lradius 100.523
lwrist 34.5515
lhand -27.9664 35.2553
lfingers 7.12502
lthumb -1.35349 65.2307
rfemur -31.9586 1.39403 25.8189
rtibia 44.2883
rfoot -14.909 -9.21302
rtoes 13.1403
lfemur -15.2746 8.25559 -12.412
ltibia 61.3044
lfoot -14.5588 -1.07248
ltoes -8.78403
187
root 11.2541 17.013 -5.43907 20.2869 -81.7896 -15.9715
lowerback 8.29364 0.706933 4.3908
upperback 1.20829 1.3568 2.43473
thorax -3.3539 0.60453 -0.0919767
lowerneck -15.5174 11.0237 -2.56702
upperneck 23.288 15.553 1.44243
head 9.58325 7.07581 2.8194
rclavicle 5.66536e-015 -1.35174e-014
rhumerus -30.9541 41.3271 -98.696
rradius 96.3216
rwrist -9.57534
rhand -37.5824 18.4841
rfingers 7.12502
rthumb -10.6365 -11.2267
lclavicle 5.66536e-015 -1.35174e-014
lhumerus -32.3561 -37.0401 106.284
lradius 100.851
lwrist 34.0592
lhand -28.1101 34.7417
lfingers 7.12502
lthumb -1.49227 64.7162
rfemur -32.3517 1.20518 25.537
rtibia 44.2073
rfoot -14.6406 -9.2547
rtoes 13.1414
lfemur -14.3758 8.15236 -12.6198
ltibia 60.9661
lfoot -14.0287 -1.19566
ltoes -8.93155
